<svg width="31" height="30" viewBox="0 0 31 30" fill="none" xmlns="http://www.w3.org/2000/svg">
<path d="M15.5 24.7448L9.875 16.3073C9.17188 15 8 13.1395 8 11.25C8 7.10812 11.3581 3.75 15.5 3.75C19.6419 3.75 23 7.10812 23 11.25C23 13.1395 22.0367 15 21.125 16.3073L15.5 24.7448Z" fill="#F76D57"/>
<path d="M15.5 0C9.28719 0 4.25 5.03719 4.25 11.25C4.25 13.6964 5.05203 15.9413 6.38516 17.7797C6.40906 17.8238 6.41281 17.873 6.44 17.9152L13.94 29.1652C14.2878 29.6869 14.8738 30 15.5 30C16.1262 30 16.7122 29.6869 17.06 29.1652L24.56 17.9152C24.5877 17.873 24.5909 17.8238 24.6148 17.7797C25.948 15.9413 26.75 13.6964 26.75 11.25C26.75 5.03719 21.7128 0 15.5 0ZM21.125 16.3073L15.5 24.7448L9.875 16.3073C9.17188 15 8 13.1395 8 11.25C8 7.10812 11.3581 3.75 15.5 3.75C19.6419 3.75 23 7.10812 23 11.25C23 13.1395 22.0367 15 21.125 16.3073Z" fill="#394240"/>
<path d="M15.5 15C17.5711 15 19.25 13.3211 19.25 11.25C19.25 9.17893 17.5711 7.5 15.5 7.5C13.4289 7.5 11.75 9.17893 11.75 11.25C11.75 13.3211 13.4289 15 15.5 15Z" fill="#394240"/>
</svg>
