<svg width="12" height="12" viewBox="0 0 12 12" fill="none" xmlns="http://www.w3.org/2000/svg">
<path id="Shape" fill-rule="evenodd" clip-rule="evenodd" d="M5.16667 0.333313C2.58934 0.333313 0.5 2.42265 0.5 4.99998C0.5 7.57731 2.58934 9.66665 5.16667 9.66665C6.21489 9.66665 7.18239 9.32104 7.96145 8.73757L10.6953 11.4714C10.9557 11.7318 11.3778 11.7318 11.6381 11.4714C11.8985 11.2111 11.8985 10.789 11.6381 10.5286L8.90426 7.79476C9.48773 7.01571 9.83333 6.0482 9.83333 4.99998C9.83333 2.42265 7.744 0.333313 5.16667 0.333313ZM1.83333 4.99998C1.83333 3.15903 3.32572 1.66665 5.16667 1.66665C7.00762 1.66665 8.5 3.15903 8.5 4.99998C8.5 6.84093 7.00762 8.33331 5.16667 8.33331C3.32572 8.33331 1.83333 6.84093 1.83333 4.99998Z" fill="#64748B"/>
</svg>
