<svg width="109" height="58" viewBox="0 0 109 58" fill="none" xmlns="http://www.w3.org/2000/svg">
<path d="M23.8259 -1.43051e-06H28.6859V21H23.8259V-1.43051e-06ZM14.2859 21H9.42594V-1.43051e-06H14.2859V21ZM24.1859 12.39H13.9259V8.28H24.1859V12.39ZM40.7045 21.24C38.9845 21.24 37.4545 20.88 36.1145 20.16C34.7945 19.44 33.7445 18.46 32.9645 17.22C32.2045 15.96 31.8245 14.53 31.8245 12.93C31.8245 11.31 32.2045 9.88 32.9645 8.64C33.7445 7.38 34.7945 6.4 36.1145 5.7C37.4545 4.98 38.9845 4.62 40.7045 4.62C42.4045 4.62 43.9245 4.98 45.2645 5.7C46.6045 6.4 47.6545 7.37 48.4145 8.61C49.1745 9.85 49.5545 11.29 49.5545 12.93C49.5545 14.53 49.1745 15.96 48.4145 17.22C47.6545 18.46 46.6045 19.44 45.2645 20.16C43.9245 20.88 42.4045 21.24 40.7045 21.24ZM40.7045 17.4C41.4845 17.4 42.1845 17.22 42.8045 16.86C43.4245 16.5 43.9145 15.99 44.2745 15.33C44.6345 14.65 44.8145 13.85 44.8145 12.93C44.8145 11.99 44.6345 11.19 44.2745 10.53C43.9145 9.87 43.4245 9.36 42.8045 9C42.1845 8.64 41.4845 8.46 40.7045 8.46C39.9245 8.46 39.2245 8.64 38.6045 9C37.9845 9.36 37.4845 9.87 37.1045 10.53C36.7445 11.19 36.5645 11.99 36.5645 12.93C36.5645 13.85 36.7445 14.65 37.1045 15.33C37.4845 15.99 37.9845 16.5 38.6045 16.86C39.2245 17.22 39.9245 17.4 40.7045 17.4ZM59.9727 27.06C58.4527 27.06 56.9827 26.87 55.5627 26.49C54.1627 26.13 52.9927 25.58 52.0527 24.84L53.9127 21.48C54.5927 22.04 55.4527 22.48 56.4927 22.8C57.5527 23.14 58.5927 23.31 59.6127 23.31C61.2727 23.31 62.4727 22.94 63.2127 22.2C63.9727 21.46 64.3527 20.36 64.3527 18.9V16.47L64.6527 12.42L64.5927 8.34V4.86H69.0327V18.3C69.0327 21.3 68.2527 23.51 66.6927 24.93C65.1327 26.35 62.8927 27.06 59.9727 27.06ZM59.2527 20.22C57.7527 20.22 56.3927 19.9 55.1727 19.26C53.9727 18.6 53.0027 17.69 52.2627 16.53C51.5427 15.35 51.1827 13.98 51.1827 12.42C51.1827 10.84 51.5427 9.47 52.2627 8.31C53.0027 7.13 53.9727 6.22 55.1727 5.58C56.3927 4.94 57.7527 4.62 59.2527 4.62C60.6127 4.62 61.8127 4.9 62.8527 5.46C63.8927 6 64.7027 6.85 65.2827 8.01C65.8627 9.15 66.1527 10.62 66.1527 12.42C66.1527 14.2 65.8627 15.67 65.2827 16.83C64.7027 17.97 63.8927 18.82 62.8527 19.38C61.8127 19.94 60.6127 20.22 59.2527 20.22ZM60.1827 16.38C61.0027 16.38 61.7327 16.22 62.3727 15.9C63.0127 15.56 63.5127 15.09 63.8727 14.49C64.2327 13.89 64.4127 13.2 64.4127 12.42C64.4127 11.62 64.2327 10.93 63.8727 10.35C63.5127 9.75 63.0127 9.29 62.3727 8.97C61.7327 8.63 61.0027 8.46 60.1827 8.46C59.3627 8.46 58.6327 8.63 57.9927 8.97C57.3527 9.29 56.8427 9.75 56.4627 10.35C56.1027 10.93 55.9227 11.62 55.9227 12.42C55.9227 13.2 56.1027 13.89 56.4627 14.49C56.8427 15.09 57.3527 15.56 57.9927 15.9C58.6327 16.22 59.3627 16.38 60.1827 16.38ZM82.9885 21V17.85L82.6885 17.16V11.52C82.6885 10.52 82.3785 9.74 81.7585 9.18C81.1585 8.62 80.2285 8.34 78.9685 8.34C78.1085 8.34 77.2585 8.48 76.4185 8.76C75.5985 9.02 74.8985 9.38 74.3185 9.84L72.6385 6.57C73.5185 5.95 74.5785 5.47 75.8185 5.13C77.0585 4.79 78.3185 4.62 79.5985 4.62C82.0585 4.62 83.9685 5.2 85.3285 6.36C86.6885 7.52 87.3685 9.33 87.3685 11.79V21H82.9885ZM78.0685 21.24C76.8085 21.24 75.7285 21.03 74.8285 20.61C73.9285 20.17 73.2385 19.58 72.7585 18.84C72.2785 18.1 72.0385 17.27 72.0385 16.35C72.0385 15.39 72.2685 14.55 72.7285 13.83C73.2085 13.11 73.9585 12.55 74.9785 12.15C75.9985 11.73 77.3285 11.52 78.9685 11.52H83.2585V14.25H79.4785C78.3785 14.25 77.6185 14.43 77.1985 14.79C76.7985 15.15 76.5985 15.6 76.5985 16.14C76.5985 16.74 76.8285 17.22 77.2885 17.58C77.7685 17.92 78.4185 18.09 79.2385 18.09C80.0185 18.09 80.7185 17.91 81.3385 17.55C81.9585 17.17 82.4085 16.62 82.6885 15.9L83.4085 18.06C83.0685 19.1 82.4485 19.89 81.5485 20.43C80.6485 20.97 79.4885 21.24 78.0685 21.24ZM91.3041 21V4.86H95.7741V9.42L95.1441 8.1C95.6241 6.96 96.3941 6.1 97.4541 5.52C98.5141 4.92 99.8041 4.62 101.324 4.62V8.94C101.124 8.92 100.944 8.91 100.784 8.91C100.624 8.89 100.454 8.88 100.274 8.88C98.9941 8.88 97.9541 9.25 97.1541 9.99C96.3741 10.71 95.9841 11.84 95.9841 13.38V21H91.3041ZM8.63902 51.36C6.95902 51.36 5.34902 51.14 3.80902 50.7C2.26902 50.24 1.02902 49.65 0.0890235 48.93L1.73902 45.27C2.63902 45.91 3.69902 46.44 4.91902 46.86C6.15902 47.26 7.40902 47.46 8.66902 47.46C9.62902 47.46 10.399 47.37 10.979 47.19C11.579 46.99 12.019 46.72 12.299 46.38C12.579 46.04 12.719 45.65 12.719 45.21C12.719 44.65 12.499 44.21 12.059 43.89C11.619 43.55 11.039 43.28 10.319 43.08C9.59902 42.86 8.79902 42.66 7.91902 42.48C7.05902 42.28 6.18902 42.04 5.30902 41.76C4.44902 41.48 3.65902 41.12 2.93902 40.68C2.21902 40.24 1.62902 39.66 1.16902 38.94C0.729024 38.22 0.509024 37.3 0.509024 36.18C0.509024 34.98 0.829024 33.89 1.46902 32.91C2.12902 31.91 3.10902 31.12 4.40902 30.54C5.72902 29.94 7.37902 29.64 9.35902 29.64C10.679 29.64 11.979 29.8 13.259 30.12C14.539 30.42 15.669 30.88 16.649 31.5L15.149 35.19C14.169 34.63 13.189 34.22 12.209 33.96C11.229 33.68 10.269 33.54 9.32902 33.54C8.38902 33.54 7.61902 33.65 7.01902 33.87C6.41902 34.09 5.98902 34.38 5.72902 34.74C5.46902 35.08 5.33902 35.48 5.33902 35.94C5.33902 36.48 5.55902 36.92 5.99902 37.26C6.43902 37.58 7.01902 37.84 7.73902 38.04C8.45902 38.24 9.24902 38.44 10.109 38.64C10.989 38.84 11.859 39.07 12.719 39.33C13.599 39.59 14.399 39.94 15.119 40.38C15.839 40.82 16.419 41.4 16.859 42.12C17.319 42.84 17.549 43.75 17.549 44.85C17.549 46.03 17.219 47.11 16.559 48.09C15.899 49.07 14.909 49.86 13.589 50.46C12.289 51.06 10.639 51.36 8.63902 51.36ZM28.2499 51.24C26.4099 51.24 24.7899 50.88 23.3899 50.16C22.0099 49.44 20.9399 48.46 20.1799 47.22C19.4199 45.96 19.0399 44.53 19.0399 42.93C19.0399 41.31 19.4099 39.88 20.1499 38.64C20.9099 37.38 21.9399 36.4 23.2399 35.7C24.5399 34.98 26.0099 34.62 27.6499 34.62C29.2299 34.62 30.6499 34.96 31.9099 35.64C33.1899 36.3 34.1999 37.26 34.9399 38.52C35.6799 39.76 36.0499 41.25 36.0499 42.99C36.0499 43.17 36.0399 43.38 36.0199 43.62C35.9999 43.84 35.9799 44.05 35.9599 44.25H22.8499V41.52H33.4999L31.6999 42.33C31.6999 41.49 31.5299 40.76 31.1899 40.14C30.8499 39.52 30.3799 39.04 29.7799 38.7C29.1799 38.34 28.4799 38.16 27.6799 38.16C26.8799 38.16 26.1699 38.34 25.5499 38.7C24.9499 39.04 24.4799 39.53 24.1399 40.17C23.7999 40.79 23.6299 41.53 23.6299 42.39V43.11C23.6299 43.99 23.8199 44.77 24.1999 45.45C24.5999 46.11 25.1499 46.62 25.8499 46.98C26.5699 47.32 27.4099 47.49 28.3699 47.49C29.2299 47.49 29.9799 47.36 30.6199 47.1C31.2799 46.84 31.8799 46.45 32.4199 45.93L34.9099 48.63C34.1699 49.47 33.2399 50.12 32.1199 50.58C30.9999 51.02 29.7099 51.24 28.2499 51.24ZM46.4557 57.06C44.9357 57.06 43.4657 56.87 42.0457 56.49C40.6457 56.13 39.4757 55.58 38.5357 54.84L40.3957 51.48C41.0757 52.04 41.9357 52.48 42.9757 52.8C44.0357 53.14 45.0757 53.31 46.0957 53.31C47.7557 53.31 48.9557 52.94 49.6957 52.2C50.4557 51.46 50.8357 50.36 50.8357 48.9V46.47L51.1357 42.42L51.0757 38.34V34.86H55.5157V48.3C55.5157 51.3 54.7357 53.51 53.1757 54.93C51.6157 56.35 49.3757 57.06 46.4557 57.06ZM45.7357 50.22C44.2357 50.22 42.8757 49.9 41.6557 49.26C40.4557 48.6 39.4857 47.69 38.7457 46.53C38.0257 45.35 37.6657 43.98 37.6657 42.42C37.6657 40.84 38.0257 39.47 38.7457 38.31C39.4857 37.13 40.4557 36.22 41.6557 35.58C42.8757 34.94 44.2357 34.62 45.7357 34.62C47.0957 34.62 48.2957 34.9 49.3357 35.46C50.3757 36 51.1857 36.85 51.7657 38.01C52.3457 39.15 52.6357 40.62 52.6357 42.42C52.6357 44.2 52.3457 45.67 51.7657 46.83C51.1857 47.97 50.3757 48.82 49.3357 49.38C48.2957 49.94 47.0957 50.22 45.7357 50.22ZM46.6657 46.38C47.4857 46.38 48.2157 46.22 48.8557 45.9C49.4957 45.56 49.9957 45.09 50.3557 44.49C50.7157 43.89 50.8957 43.2 50.8957 42.42C50.8957 41.62 50.7157 40.93 50.3557 40.35C49.9957 39.75 49.4957 39.29 48.8557 38.97C48.2157 38.63 47.4857 38.46 46.6657 38.46C45.8457 38.46 45.1157 38.63 44.4757 38.97C43.8357 39.29 43.3257 39.75 42.9457 40.35C42.5857 40.93 42.4057 41.62 42.4057 42.42C42.4057 43.2 42.5857 43.89 42.9457 44.49C43.3257 45.09 43.8357 45.56 44.4757 45.9C45.1157 46.22 45.8457 46.38 46.6657 46.38ZM66.3815 51.24C65.0415 51.24 63.8415 50.98 62.7815 50.46C61.7415 49.94 60.9315 49.15 60.3515 48.09C59.7715 47.01 59.4815 45.64 59.4815 43.98V34.86H64.1615V43.29C64.1615 44.63 64.4415 45.62 65.0015 46.26C65.5815 46.88 66.3915 47.19 67.4315 47.19C68.1515 47.19 68.7915 47.04 69.3515 46.74C69.9115 46.42 70.3515 45.94 70.6715 45.3C70.9915 44.64 71.1515 43.82 71.1515 42.84V34.86H75.8315V51H71.3915V46.56L72.2015 47.85C71.6615 48.97 70.8615 49.82 69.8015 50.4C68.7615 50.96 67.6215 51.24 66.3815 51.24ZM79.8672 51V34.86H84.3372V39.42L83.7072 38.1C84.1872 36.96 84.9572 36.1 86.0172 35.52C87.0772 34.92 88.3672 34.62 89.8872 34.62V38.94C89.6872 38.92 89.5072 38.91 89.3472 38.91C89.1872 38.89 89.0172 38.88 88.8372 38.88C87.5572 38.88 86.5172 39.25 85.7172 39.99C84.9372 40.71 84.5472 41.84 84.5472 43.38V51H79.8672ZM99.9328 51.24C98.2128 51.24 96.6828 50.88 95.3428 50.16C94.0228 49.44 92.9728 48.46 92.1928 47.22C91.4328 45.96 91.0528 44.53 91.0528 42.93C91.0528 41.31 91.4328 39.88 92.1928 38.64C92.9728 37.38 94.0228 36.4 95.3428 35.7C96.6828 34.98 98.2128 34.62 99.9328 34.62C101.633 34.62 103.153 34.98 104.493 35.7C105.833 36.4 106.883 37.37 107.643 38.61C108.403 39.85 108.783 41.29 108.783 42.93C108.783 44.53 108.403 45.96 107.643 47.22C106.883 48.46 105.833 49.44 104.493 50.16C103.153 50.88 101.633 51.24 99.9328 51.24ZM99.9328 47.4C100.713 47.4 101.413 47.22 102.033 46.86C102.653 46.5 103.143 45.99 103.503 45.33C103.863 44.65 104.043 43.85 104.043 42.93C104.043 41.99 103.863 41.19 103.503 40.53C103.143 39.87 102.653 39.36 102.033 39C101.413 38.64 100.713 38.46 99.9328 38.46C99.1528 38.46 98.4528 38.64 97.8328 39C97.2128 39.36 96.7128 39.87 96.3328 40.53C95.9728 41.19 95.7928 41.99 95.7928 42.93C95.7928 43.85 95.9728 44.65 96.3328 45.33C96.7128 45.99 97.2128 46.5 97.8328 46.86C98.4528 47.22 99.1528 47.4 99.9328 47.4Z" fill="#4163DB"/>
</svg>
